# xmcd
#
# Track frame offsets:
#	150
#	15175
#	36450
#	74620
#	93692
#	109115
#	130835
#	152650
#	167047
#	175950
#	182170
#	190957
#	213462
#	236170
#	249045
#	269517
#	292052
#	311025
#
# Disc length: 4309 seconds
#
# Revision: 1
# Processed by: cddbd v1.5.2PL0 Copyright (c) Steve Scherf et al.
# Submitted via: EasyCDDAExtractor 16.0.6.1
#
DISCID=0c10d312
DTITLE=Tim Maia - Ao Vivo
DYEAR=1992
DGENRE=Soul
TTITLE0=Vale Tudo
TTITLE1=Telefone
TTITLE2=Descobridor Dos 7 Mares
TTITLE3=Paixão Antiga
TTITLE4=Sossego
TTITLE5=Você
TTITLE6=Me Dê Motivo
TTITLE7=Folha De Papel
TTITLE8=A Rã
TTITLE9=Wave
TTITLE10=The Girl From Ipanema (Garota De Ipanema)
TTITLE11=Dia De Domingo
TTITLE12=Primavera (Vai Chuva)
TTITLE13=Azul Da Cor Do Mar
TTITLE14=Você E Eu, Eu E Você
TTITLE15=Do Leme Ao Pontal
TTITLE16=A Festa Do Santo Reis
TTITLE17=Vale Tudo
EXTD=
EXTT0=
EXTT1=
EXTT2=
EXTT3=
EXTT4=
EXTT5=
EXTT6=
EXTT7=
EXTT8=
EXTT9=
EXTT10=
EXTT11=
EXTT12=
EXTT13=
EXTT14=
EXTT15=
EXTT16=
EXTT17=
PLAYORDER=
